<?xml version="1.0" encoding="UTF-8" standalone="no"?>
<!-- Created with Inkscape (http://www.inkscape.org/) -->

<svg
   width="211.66667mm"
   height="211.66701mm"
   viewBox="0 0 211.66667 211.66701"
   version="1.1"
   id="svg1"
   xml:space="preserve"
   xmlns="http://www.w3.org/2000/svg"
   xmlns:svg="http://www.w3.org/2000/svg"><defs
     id="defs1" /><g
     id="layer1"><g
       id="g3"
       transform="matrix(0.79409431,0,0,0.79409431,21.791687,46.363502)"><g
         id="g1"
         transform="matrix(0.45914579,0,0,0.45914579,-48.064699,7.0957353)">
	<path
   style="fill:#f61c0d"
   d="m 469.93987,-15.454209 h -269.513 c -52.878,0 -95.744,42.866 -95.744,95.744 V 215.01779 c 0,52.878 42.866,95.744 95.744,95.744 h 269.513 c 52.878,0 95.744,-42.866 95.744,-95.744 V 80.289791 c 0,-52.878 -42.866,-95.744 -95.744,-95.744 z"
   id="path1" />
</g><g
         id="g2"
         transform="matrix(1.2298835,0,0,1.2298835,-23.077953,-107.79864)"><path
           style="fill:#ffffff;fill-opacity:1;stroke-width:4.99999;stroke-linecap:round;stroke-linejoin:round"
           d="m 94.393373,106.51163 c -1.079429,-0.005 -1.758583,0.41257 -1.670164,1.64204 l 0.258043,34.90123 -12.364177,-0.0685 c -3.668715,0.10829 -3.696159,4.527 -2.529411,5.24542 l 25.732616,25.72101 c 0.652,0.33204 1.33514,0.4956 2.12751,0.068 l 25.24544,-25.35448 c 1.5939,-1.47777 1.67404,-5.70841 -2.15976,-5.71807 l -11.80671,0.0835 0.10537,-34.75036 c 0.13713,-1.36618 -0.58272,-1.81751 -1.72799,-1.81469 z"
           id="path2" /><rect
           style="fill:#ffffff;fill-opacity:1;stroke-width:4.99999;stroke-linecap:round;stroke-linejoin:round"
           id="rect2"
           width="54.633232"
           height="9.1871424"
           x="77.584557"
           y="181.42955"
           ry="1.405" /></g></g></g></svg>
